<svg xmlns="http://www.w3.org/2000/svg" viewBox="0 0 64 64" role="img">
  <defs><linearGradient id="f" x1="10" y1="6" x2="52" y2="58" gradientUnits="userSpaceOnUse"><stop stop-color="#ffea00"/><stop offset=".48" stop-color="#ff8a00"/><stop offset="1" stop-color="#d92cff"/></linearGradient></defs>
  <circle cx="32" cy="32" r="28" fill="#20123a"/>
  <path fill="url(#f)" d="M54 20c-2-7-8-12-14-15 2 4 2 7 1 10-5-3-12-3-18 0C13 20 9 31 13 41c4 11 16 18 28 14 10-3 17-13 16-23-1 5-4 9-8 12-7 5-18 3-22-4-4-6-2-14 4-18 5-3 11-2 15 2-2-1-5-1-7 1 5 0 9 4 9 9 5-4 8-9 6-14Z"/>
  <path fill="#fff" d="M43 29a8 8 0 1 0-6 13c5 0 9-4 9-9 0-2-1-3-3-4Z" opacity=".92"/>
</svg>
